<?xml version="1.0" encoding="UTF-8" standalone="no"?><!DOCTYPE svg PUBLIC "-//W3C//DTD SVG 1.1//EN" "http://www.w3.org/Graphics/SVG/1.1/DTD/svg11.dtd"><svg width="100%" height="100%" viewBox="0 0 732 217" version="1.1" xmlns="http://www.w3.org/2000/svg" xmlns:xlink="http://www.w3.org/1999/xlink" xml:space="preserve" xmlns:serif="http://www.serif.com/" style="fill-rule:evenodd;clip-rule:evenodd;"><g id="Page-1"><g id="mark-copy"><path id="Left---green" d="M1.027,48.459l7.63,-7.704l37.567,55.944l-0,118.299l-45.197,-45.104l0,-121.435Z" style="fill-opacity:0;stroke:#dae2ec;stroke-width:4px;"/><path id="Right---blue" d="M175.663,48.889l-45.815,-46.037l-0,117.867l38.329,57.638c-0,-0 7.796,-8.463 7.796,-8.463l-0.31,-121.005Z" style="fill:#dae2ec;"/><path id="Cross---blue" d="M46.194,2.863l117.506,179.31l-32.882,32.881l-117.568,-178.913l32.944,-33.278Z" style="fill:#dae2ec;"/></g><g id="wordmark"><g id="Group"><g><path id="Shape" d="M217,156l0,-89.56l4.655,0c1.55,0 2.445,0.751 2.685,2.25l0.806,13.502c4.058,-5.159 8.786,-9.316 14.188,-12.466c5.399,-3.151 11.413,-4.726 18.037,-4.726c4.893,0 9.205,0.781 12.935,2.34c3.729,1.561 6.817,3.811 9.264,6.751c2.448,2.942 4.297,6.481 5.55,10.621c1.253,4.141 1.88,8.821 1.88,14.042l0,57.246l-8.504,0l0,-57.246c0,-8.402 -1.91,-14.987 -5.729,-19.757c-3.82,-4.771 -9.667,-7.156 -17.544,-7.156c-5.851,-0 -11.279,1.516 -16.292,4.545c-5.013,3.032 -9.489,7.187 -13.427,12.467l-0,67.147l-8.504,0Z" style="fill:#dae2ec;"/><path id="Shape1" serif:id="Shape" d="M340.624,65c5.066,0 9.755,0.868 14.069,2.605c4.312,1.738 8.052,4.268 11.219,7.592c3.167,3.324 5.638,7.412 7.419,12.264c1.779,4.852 2.669,10.422 2.669,16.711c0,1.317 -0.195,2.215 -0.588,2.695c-0.393,0.48 -1.01,0.719 -1.851,0.719l-64.966,-0l0,1.707c0,6.708 0.784,12.609 2.353,17.699c1.567,5.091 3.8,9.358 6.695,12.803c2.895,3.445 6.393,6.034 10.495,7.771c4.1,1.738 8.686,2.606 13.752,2.606c4.524,-0 8.446,-0.494 11.762,-1.483c3.317,-0.988 6.108,-2.096 8.369,-3.324c2.262,-1.227 4.057,-2.336 5.384,-3.324c1.326,-0.988 2.292,-1.482 2.895,-1.482c0.784,-0 1.388,0.3 1.81,0.898l2.352,2.875c-1.448,1.797 -3.362,3.475 -5.745,5.031c-2.383,1.558 -5.038,2.891 -7.962,3.998c-2.926,1.109 -6.062,1.991 -9.41,2.651c-3.347,0.657 -6.709,0.988 -10.088,0.988c-6.152,0 -11.762,-1.064 -16.828,-3.189c-5.067,-2.126 -9.415,-5.226 -13.043,-9.299c-3.63,-4.074 -6.435,-9.06 -8.415,-14.959c-1.981,-5.899 -2.971,-12.654 -2.971,-20.26c0,-6.408 0.919,-12.323 2.76,-17.744c1.84,-5.421 4.493,-10.093 7.961,-14.016c3.467,-3.922 7.72,-6.991 12.758,-9.209c5.034,-2.215 10.75,-3.324 17.145,-3.324Zm0.573,6c-4.696,0 -8.904,0.702 -12.623,2.105c-3.721,1.404 -6.936,3.421 -9.65,6.053c-2.713,2.631 -4.908,5.789 -6.586,9.474c-1.678,3.684 -2.788,7.807 -3.338,12.368l60,0c0,-4.679 -0.672,-8.874 -2.013,-12.588c-1.343,-3.712 -3.232,-6.856 -5.671,-9.43c-2.438,-2.571 -5.366,-4.545 -8.781,-5.921c-3.413,-1.373 -7.192,-2.061 -11.338,-2.061Z" style="fill:#dae2ec;"/><path id="Shape2" serif:id="Shape" d="M425.546,65c6.526,0 12.368,1.093 17.524,3.279c5.154,2.187 9.501,5.287 13.04,9.299c3.538,4.013 6.238,8.85 8.099,14.51c1.861,5.66 2.791,11.994 2.791,19.002c0,7.008 -0.932,13.327 -2.791,18.957c-1.861,5.631 -4.561,10.452 -8.099,14.465c-3.539,4.012 -7.886,7.097 -13.04,9.254c-5.156,2.156 -10.998,3.234 -17.524,3.234c-6.529,0 -12.369,-1.078 -17.525,-3.234c-5.155,-2.157 -9.517,-5.242 -13.085,-9.254c-3.569,-4.013 -6.285,-8.836 -8.145,-14.465c-1.861,-5.63 -2.791,-11.949 -2.791,-18.957c-0,-7.008 0.93,-13.342 2.791,-19.002c1.861,-5.66 4.576,-10.496 8.145,-14.51c3.568,-4.012 7.93,-7.112 13.085,-9.299c5.156,-2.185 10.996,-3.279 17.525,-3.279Zm-0.501,86c5.341,0 10.006,-0.918 13.997,-2.757c3.99,-1.838 7.32,-4.474 9.992,-7.909c2.67,-3.435 4.664,-7.576 5.986,-12.428c1.317,-4.851 1.98,-10.288 1.98,-16.316c-0,-5.965 -0.661,-11.389 -1.98,-16.27c-1.322,-4.881 -3.316,-9.053 -5.986,-12.519c-2.67,-3.463 -6.001,-6.13 -9.992,-7.999c-3.991,-1.867 -8.657,-2.802 -13.997,-2.802c-5.34,0 -10.008,0.935 -13.997,2.802c-3.991,1.869 -7.322,4.536 -9.992,7.999c-2.671,3.466 -4.68,7.638 -6.031,12.519c-1.35,4.881 -2.025,10.305 -2.025,16.27c0,6.026 0.675,11.465 2.025,16.316c1.351,4.852 3.36,8.993 6.031,12.428c2.67,3.435 6.001,6.071 9.992,7.909c3.989,1.839 8.656,2.757 13.997,2.757Z" style="fill:#dae2ec;"/><path id="Shape3" serif:id="Shape" d="M520.57,154l-20.05,0l-36.52,-92l18.349,0c1.612,0 2.968,0.389 4.073,1.166c1.103,0.778 1.865,1.763 2.283,2.959l17.722,49.138c1.014,2.87 1.866,5.68 2.551,8.429c0.686,2.751 1.298,5.5 1.835,8.25c0.537,-2.75 1.148,-5.499 1.835,-8.25c0.686,-2.749 1.567,-5.559 2.641,-8.429l18.17,-49.138c0.417,-1.196 1.164,-2.181 2.238,-2.959c1.074,-0.777 2.356,-1.166 3.849,-1.166l17.454,0l-36.43,92Z" style="fill:#dae2ec;"/><rect id="Rectangle" x="562" y="63" width="23" height="92" style="fill:#dae2ec;"/><path id="Shape4" serif:id="Shape" d="M600,155l0,-92.557l13.624,0c2.887,0 4.779,1.354 5.682,4.06l1.443,6.856c1.624,-1.804 3.323,-3.459 5.097,-4.962c1.773,-1.503 3.668,-2.796 5.683,-3.879c2.014,-1.082 4.179,-1.939 6.496,-2.571c2.314,-0.631 4.855,-0.947 7.624,-0.947c5.832,0 10.629,1.579 14.389,4.736c3.759,3.157 6.571,7.352 8.435,12.585c1.444,-3.068 3.248,-5.698 5.413,-7.894c2.165,-2.194 4.541,-3.984 7.127,-5.367c2.585,-1.383 5.337,-2.406 8.254,-3.068c2.916,-0.662 5.848,-0.992 8.796,-0.992c5.111,0 9.653,0.783 13.622,2.345c3.969,1.565 7.307,3.849 10.014,6.857c2.706,3.007 4.766,6.675 6.179,11.005c1.413,4.33 2.122,9.292 2.122,14.885l0,58.908l-22.284,0l-0,-58.908c-0,-5.894 -1.294,-10.329 -3.878,-13.306c-2.587,-2.977 -6.376,-4.465 -11.368,-4.465c-2.286,-0 -4.404,0.391 -6.358,1.172c-1.956,0.783 -3.67,1.911 -5.144,3.383c-1.473,1.474 -2.631,3.324 -3.474,5.548c-0.842,2.225 -1.263,4.781 -1.263,7.668l0,58.908l-22.37,0l-0,-58.908c-0,-6.194 -1.249,-10.704 -3.744,-13.532c-2.497,-2.825 -6.18,-4.239 -11.051,-4.239c-3.19,-0 -6.18,0.797 -8.976,2.39c-2.799,1.593 -5.399,3.775 -7.804,6.54l0,67.749l-22.286,0Z" style="fill:#dae2ec;"/></g><rect id="Rectangle1" serif:id="Rectangle" x="562" y="32" width="23" height="19" style="fill:#dae2ec;"/></g></g></g></svg>